<svg id="Layer_1" data-name="Layer 1" xmlns="http://www.w3.org/2000/svg" viewBox="0 0 116.08 122.81"><defs><style>.cls-1{fill:#ff661b;fill-rule:evenodd;}</style></defs><path class="cls-1" d="M72.2,66a22.24,22.24,0,0,1,5.4-5.2A33.37,33.37,0,0,1,91,55.9a1.58,1.58,0,0,1,1.8,1.3A1.65,1.65,0,0,1,91.6,59h0c-4.8.9-8.9,2.2-12.2,4.4A22.21,22.21,0,0,0,72.7,71c12.6,1.3,20.1,0,25.5-3.9s9-10.7,13.8-20.4c-1.4.1-2.8.2-4.3.2-9.6.5-20,.9-26.6,6.7a41,41,0,0,0-4.9,5.3,55.69,55.69,0,0,0-4,5.9V66ZM67.8,34a9.85,9.85,0,0,1-1.7-.2l-1.8-.3a10.46,10.46,0,0,1-1.7-.4V28.3a17,17,0,0,0,2.3.1c.8,0,1.6.1,2.5.1h2.3a9.7,9.7,0,0,0,1.7-.1,1.91,1.91,0,0,0,1-.5,1.42,1.42,0,0,0-.1-2h0a1.43,1.43,0,0,0-1.1-.3H69.6A8,8,0,0,1,64.2,24c-2.7-2.3-2.5-8.8.2-11a7.34,7.34,0,0,1,3.5-1.5V9.1h4.4v2.4l.7.1c.8.1,1.7.2,2.4.3s1.4.3,2,.4V17c-.9-.1-2-.1-3.2-.2s-2.2-.1-3.2-.1a7.57,7.57,0,0,0-1.5.1,1.91,1.91,0,0,0-1,.5,1.57,1.57,0,0,0,.1,2.2,2.6,2.6,0,0,0,1.5.4h2a7.58,7.58,0,0,1,3.6.8,5.81,5.81,0,0,1,2.2,2.2c1.1,2.1,1,6.4-.3,8.4a5.13,5.13,0,0,1-2.9,2.1,9.26,9.26,0,0,1-2.3.4v2.7H68V34ZM2.8,77.8H18.3a2.86,2.86,0,0,1,2.8,2.8v31.8a2.8,2.8,0,0,1-2.8,2.8H2.8A2.8,2.8,0,0,1,0,112.4V80.6A2.73,2.73,0,0,1,2.8,77.8ZM25.2,112V80.8H39.3c6,1.1,11.9,4.3,17.9,8H68.1c4.9.3,7.5,5.3,2.7,8.6-3.8,2.8-8.9,2.6-14,2.2-3.6-.2-3.7,4.6,0,4.6,1.3.1,2.7-.2,3.9-.2,6.5,0,11.8-1.2,15-6.3l1.6-3.8,16.2-8.1c8.1-2.7,13.9,5.8,7.9,11.7a208.38,208.38,0,0,1-36.2,21.3c-9,5.4-17.9,5.3-26.9,0ZM70.3,0a23.43,23.43,0,0,1,1.9,46.8V59c.5-.7,1-1.4,1.5-2A48.63,48.63,0,0,1,79,51.2c7.4-6.5,18.4-7,28.5-7.5,2.3-.1,4.6-.2,6.9-.4h0a1.08,1.08,0,0,1,.8.2,1.53,1.53,0,0,1,.7,2.1c-5.6,11.5-9.5,19.3-15.9,24-6,4.4-14.2,5.8-27.8,4.5v2.4c7.8.8,15.1,1.8,19.2,5h0L76.8,88.8a8.73,8.73,0,0,0-2-2.3,11,11,0,0,0-6-2.4,1.7,1.7,0,0,1-.7-.1H58.5a68.92,68.92,0,0,0-10.4-5.5c5.1-1.8,11.8-2.2,18.6-2.3V69.8A34.4,34.4,0,0,1,55.2,69a17.21,17.21,0,0,1-10.6-8.6v-.1h0l-4.4-9a1.79,1.79,0,0,1,.9-2.5h0a2.92,2.92,0,0,1,.9-.2h0l14.6.9H57c2.7.3,5.7.7,8.4,3.1a15.93,15.93,0,0,1,1.3,1.3c0-2.8.2-4.7.2-7.1A23.52,23.52,0,0,1,70.3,0Zm0,3.8A19.8,19.8,0,1,1,56.4,9.6,19.67,19.67,0,0,1,70.3,3.8ZM66.7,66v-.3a5.72,5.72,0,0,0-1.6-1.5,14,14,0,0,0-4.8-1.8,1.56,1.56,0,1,1,.3-3.1.6.6,0,0,1,.4.1,17.3,17.3,0,0,1,5.7,2.2v-.4a1.42,1.42,0,0,1-.2-.6,13.18,13.18,0,0,0-3.6-5.1c-1.8-1.6-4.2-1.9-6.4-2.2h0l-11.4-.7,3,6.1a13.75,13.75,0,0,0,8.3,6.8A32.33,32.33,0,0,0,66.7,66Z" transform="translate(0 0)"/></svg>