<svg id="Layer_1" data-name="Layer 1" xmlns="http://www.w3.org/2000/svg" viewBox="0 0 390 490"><defs><style>.cls-1{fill:#ff661b;}</style></defs><path class="cls-1" d="M440,110a10.07,10.07,0,0,0-2.9-7.1l-100-100A10.07,10.07,0,0,0,330,0H60A10,10,0,0,0,50,10V480a10,10,0,0,0,10,10H430a10,10,0,0,0,10-10V110ZM340,34.1,405.9,100H340ZM420,470H70V20H320v90a10,10,0,0,0,10,10h90Z" transform="translate(-50)"/><path class="cls-1" d="M379.4,339.5c-7.7-12.4-21-19.5-36.5-19.5a58,58,0,0,0-22.9,4.9,59.75,59.75,0,0,0-22.9-4.9c-15.6,0-28.9,7.1-36.5,19.5-8,13-8.5,29.7-1.6,46.4-7,16.7-6.5,33.4,1.5,46.4,7.7,12.4,21,19.5,36.6,19.5a58,58,0,0,0,22.9-4.9,59.75,59.75,0,0,0,22.9,4.9h0c15.6,0,28.9-7.1,36.6-19.5,8-13,8.5-29.7,1.5-46.4C388,369.2,387.5,352.5,379.4,339.5Zm-17,82.2c-4,6.5-10.9,10-19.6,10a41.36,41.36,0,0,1-18.4-4.8,9.75,9.75,0,0,0-9,0,41.36,41.36,0,0,1-18.4,4.8c-8.6,0-15.6-3.6-19.6-10-5-8.1-4.5-19.6,1.4-31.4a10,10,0,0,0,0-8.9c-5.9-11.8-6.4-23.3-1.4-31.4,4-6.4,10.9-10,19.5-10a41.36,41.36,0,0,1,18.4,4.8,10,10,0,0,0,8.9,0,41.36,41.36,0,0,1,18.4-4.8c8.6,0,15.5,3.6,19.5,10,5,8.1,4.5,19.6-1.4,31.4a10,10,0,0,0,0,8.9C367,402.2,367.5,413.6,362.4,421.7Z" transform="translate(-50)"/><rect class="cls-1" x="260" y="360.9" width="20" height="20"/><rect class="cls-1" x="250" y="390.9" width="40" height="20"/><rect class="cls-1" x="45" y="395" width="120" height="20"/><rect class="cls-1" x="145" y="430" width="20" height="20"/><rect class="cls-1" x="115" y="430" width="20" height="20"/><rect class="cls-1" x="45" y="430" width="20" height="20"/><rect class="cls-1" x="45" y="40" width="60" height="20"/><rect class="cls-1" x="45" y="70" width="120" height="20"/><rect class="cls-1" x="115" y="150" width="160" height="20"/><rect class="cls-1" x="45" y="190" width="300" height="20"/><rect class="cls-1" x="45" y="230" width="300" height="20"/><rect class="cls-1" x="45" y="270" width="240" height="20"/><rect class="cls-1" x="325" y="270" width="20" height="20"/><rect class="cls-1" x="295" y="270" width="20" height="20"/></svg>