<svg id="Layer_1" data-name="Layer 1" xmlns="http://www.w3.org/2000/svg" viewBox="0 0 512.1 424.8"><defs><style>.cls-1{fill:#ff661b;}</style></defs><path class="cls-1" d="M267.8,41.7a6,6,0,0,0-4.3-1.8,5.56,5.56,0,0,0-2.3.4,8.11,8.11,0,0,0-2,1.4L245.7,55.2a6.38,6.38,0,0,1-8.2.7c-1.6-1-3.2-2-4.9-2.9-1.9-1-3.7-1.9-5.5-2.7s-3.8-1.7-5.7-2.4c-1.7-.7-3.7-1.4-5.8-2.1a6.42,6.42,0,0,1-4.4-6.1V18.9a6.05,6.05,0,0,0-.4-2.4,7.16,7.16,0,0,0-1.3-1.9,5.86,5.86,0,0,0-1.9-1.3,6.05,6.05,0,0,0-2.4-.4H179.3a5.09,5.09,0,0,0-2.2.4,6.61,6.61,0,0,0-2,1.4,6.78,6.78,0,0,0-1.3,1.8,6.05,6.05,0,0,0-.4,2.4V37.8a6.54,6.54,0,0,1-5.3,6.4q-3,.75-5.7,1.5l-.3.1c-1.8.6-3.6,1.2-5.4,1.9l-.3.1c-1.8.7-3.5,1.4-5.2,2.2-1.9.9-3.6,1.8-5.3,2.6a6.34,6.34,0,0,1-7.6-1.1L123,36.4a5.72,5.72,0,0,0-1.6-1.1,4.81,4.81,0,0,0-2.2-.4,7.19,7.19,0,0,0-2.2.4,6.85,6.85,0,0,0-2.1,1.5L96.7,55.1a6.15,6.15,0,0,0-1.8,4.3,5.27,5.27,0,0,0,.4,2.3,8.11,8.11,0,0,0,1.4,2l13.5,13.5a6.38,6.38,0,0,1,.7,8.2c-1,1.6-2,3.2-2.9,4.9-1,1.9-1.9,3.7-2.7,5.5s-1.7,3.8-2.4,5.7c-.7,1.7-1.4,3.7-2.1,5.8a6.42,6.42,0,0,1-6.1,4.4H74a6.05,6.05,0,0,0-2.4.4,5.86,5.86,0,0,0-1.9,1.3h0a5.86,5.86,0,0,0-1.3,1.9,6.05,6.05,0,0,0-.4,2.4v25.9a5.09,5.09,0,0,0,.4,2.2,5.22,5.22,0,0,0,1.4,2,5.86,5.86,0,0,0,1.9,1.3l.3.1a6.65,6.65,0,0,0,2.1.3H93a6.54,6.54,0,0,1,6.4,5.3q.75,3,1.5,5.7l.1.3c.6,1.8,1.2,3.6,1.9,5.4s1.5,3.7,2.4,5.7,1.8,3.9,2.7,5.5a6.34,6.34,0,0,1-1.2,7.5l-15.1,15a5.72,5.72,0,0,0-1.1,1.6,4.64,4.64,0,0,0-.4,2.1,7.19,7.19,0,0,0,.4,2.2,6.85,6.85,0,0,0,1.5,2.1l18,18.2a6.25,6.25,0,0,0,2,1.3,7.4,7.4,0,0,0,4.8,0l.2-.1a6.19,6.19,0,0,0,1.7-1.1l13.4-13.6a6.42,6.42,0,0,1,8.5-.6c1.4.9,3,1.8,4.8,2.8s3.7,1.9,5.5,2.7,3.8,1.7,5.7,2.4c1.7.7,3.7,1.4,5.8,2.1a6.42,6.42,0,0,1,4.4,6.1V249a6.05,6.05,0,0,0,.4,2.4,7.16,7.16,0,0,0,1.3,1.9,5.86,5.86,0,0,0,1.9,1.3,6.05,6.05,0,0,0,2.4.4h25.9a5.09,5.09,0,0,0,2.2-.4,6.61,6.61,0,0,0,2-1.4,5.86,5.86,0,0,0,1.3-1.9l.1-.3a6.65,6.65,0,0,0,.3-2.1V230a6.54,6.54,0,0,1,5.3-6.4q3-.75,5.7-1.5l.3-.1c1.8-.6,3.6-1.2,5.4-1.9s3.7-1.5,5.7-2.4,3.9-1.8,5.5-2.7a6.54,6.54,0,0,1,7.6,1.2L255,231a6.78,6.78,0,0,0,1.8,1.3l.3.1a5.41,5.41,0,0,0,1.9.3,5.56,5.56,0,0,0,2.3-.4,6.78,6.78,0,0,0,1.8-1.3l18.4-18.2a6.25,6.25,0,0,0,1.3-2,7.4,7.4,0,0,0,0-4.8,6.15,6.15,0,0,0-1.2-1.9L268,190.8a6.52,6.52,0,0,1-.8-8.3c1-1.6,2-3.2,2.9-4.9a56,56,0,0,0,2.7-5.5q1.35-2.85,2.4-5.7c.7-1.7,1.4-3.7,2.1-5.8a6.42,6.42,0,0,1,6.1-4.4H304a6.05,6.05,0,0,0,2.4-.4,7.16,7.16,0,0,0,1.9-1.3,5.86,5.86,0,0,0,1.3-1.9,6.05,6.05,0,0,0,.4-2.4V124.3a5.09,5.09,0,0,0-.4-2.2,6.61,6.61,0,0,0-1.4-2,5.46,5.46,0,0,0-4.2-1.7H285.1a6.55,6.55,0,0,1-6.4-5.4,90.61,90.61,0,0,0-3.5-11.2l-.1-.3c-.7-1.9-1.5-3.7-2.2-5.3-.8-1.8-1.7-3.6-2.6-5.3a6.34,6.34,0,0,1,1.1-7.6L286.1,68a5.1,5.1,0,0,0,1.3-1.8,4.81,4.81,0,0,0,.4-2.2,5.09,5.09,0,0,0-.4-2.2,6.85,6.85,0,0,0-1.5-2.1l-18.1-18ZM39.9,374.5H241.4c18.9,0,18.7,28.5,0,28.5H39.9C21,403.1,21.2,374.5,39.9,374.5Zm-4.2-21.8H476.4c17.1,0,28.1,9.4,32.9,21.4a40.31,40.31,0,0,1,2.8,14.6,38.31,38.31,0,0,1-2.8,14.6l-.1.3c-4.9,12-15.9,21.3-32.8,21.3H35.7c-17.1,0-28.1-9.4-32.9-21.4A40.31,40.31,0,0,1,0,388.9a37.45,37.45,0,0,1,2.8-14.5C7.6,362.2,18.6,352.7,35.7,352.7Zm440.7,9.7H35.7c-12.5,0-20.5,6.8-23.9,15.5a29.86,29.86,0,0,0,0,22c3.4,8.6,11.4,15.4,23.9,15.4H476.4c12.4,0,20.3-6.7,23.8-15.2l.1-.2a29.86,29.86,0,0,0,0-22c-3.5-8.7-11.4-15.5-23.9-15.5ZM415.8,176.3a6.76,6.76,0,0,0-5.1-1.2,6.57,6.57,0,0,0-4.4,2.9l-6,8.6a54.38,54.38,0,0,0-6.8-2.3,55.71,55.71,0,0,0-7.1-1.4l-2-11.2a6,6,0,0,0-2.8-4.4,6.52,6.52,0,0,0-5.1-1.1l-14.1,2.5a6.93,6.93,0,0,0-5.6,7.9l1.8,10.3a44.14,44.14,0,0,0-6.5,3.3,54.53,54.53,0,0,0-5.8,4l-9.5-6.6a6.43,6.43,0,0,0-5-1.2,6.76,6.76,0,0,0-4.5,2.9l-8.1,11.6A6.76,6.76,0,0,0,318,206a6.57,6.57,0,0,0,2.9,4.4l8.5,6a49.38,49.38,0,0,0-2.3,6.8,59.36,59.36,0,0,0-1.4,7.1l-11.2,1.9A6.42,6.42,0,0,0,310,235a6.22,6.22,0,0,0-1.1,5.1l2.5,14.1a6.43,6.43,0,0,0,2.8,4.4,6.56,6.56,0,0,0,5.1,1.2l10.3-1.8a44.14,44.14,0,0,0,3.3,6.5,61,61,0,0,0,4,5.9l-6.6,9.4a6.43,6.43,0,0,0-1.2,5,6.57,6.57,0,0,0,2.9,4.4l11.6,8.3a6.64,6.64,0,0,0,5.1,1,6.87,6.87,0,0,0,4.5-2.7l6-8.7a54.38,54.38,0,0,0,6.8,2.3,55.71,55.71,0,0,0,7.1,1.4l2,11.2a6.42,6.42,0,0,0,2.8,4.5,6.14,6.14,0,0,0,5.1,1.1l14.1-2.5a6.65,6.65,0,0,0,4.4-2.8,6.56,6.56,0,0,0,1.2-5.1l-1.8-10.3a44.14,44.14,0,0,0,6.5-3.3,61,61,0,0,0,5.9-4l9.4,6.6a6.56,6.56,0,0,0,5.1,1.2,6.15,6.15,0,0,0,4.4-2.9l8.3-11.6a6.64,6.64,0,0,0,1-5.1,7.11,7.11,0,0,0-2.7-4.5l-8.7-6a49.38,49.38,0,0,0,2.3-6.8,55.71,55.71,0,0,0,1.4-7.1l11.2-2a6.42,6.42,0,0,0,4.5-2.8,6.22,6.22,0,0,0,1.1-5.1l-2.5-14.1a6.65,6.65,0,0,0-2.8-4.4,6.56,6.56,0,0,0-5.1-1.2l-10.3,1.8a43.13,43.13,0,0,0-3.3-6.4,55.69,55.69,0,0,0-4-5.9l6.6-9.5a6.43,6.43,0,0,0,1.2-5,6.57,6.57,0,0,0-2.9-4.4l-11.7-8.1Zm-40.2,36.9a23.36,23.36,0,0,1,9.5.2,24.49,24.49,0,0,1,8.4,3.7,24.75,24.75,0,0,1,6.3,6.6,22.91,22.91,0,0,1,3.4,8.9,25.22,25.22,0,0,1-.2,9.5,24.49,24.49,0,0,1-3.7,8.4,24.75,24.75,0,0,1-6.6,6.3,24.81,24.81,0,0,1-18.4,3.2,24.49,24.49,0,0,1-8.4-3.7,24.75,24.75,0,0,1-6.3-6.6,22.91,22.91,0,0,1-3.4-8.9,23.36,23.36,0,0,1,.2-9.5,24.49,24.49,0,0,1,3.7-8.4,24.75,24.75,0,0,1,6.6-6.3,26.07,26.07,0,0,1,8.9-3.4ZM263.5,26.9a18.52,18.52,0,0,1,13.4,5.6l18.2,18.2a18.74,18.74,0,0,1,4.1,6.1,18.51,18.51,0,0,1,0,14.6,20.37,20.37,0,0,1-4.2,6L283.7,88.9l.8,1.8c.9,2,1.8,4.1,2.6,6.1l.1.3c.8,2.1,1.5,4.2,2.2,6.5l.5,1.8h14a19.76,19.76,0,0,1,7.3,1.4,18.74,18.74,0,0,1,6.1,4.1l.1.1a18.43,18.43,0,0,1,4,6.1,19.11,19.11,0,0,1,1.4,7.1v25.9a18.86,18.86,0,0,1-1.4,7.2,18.6,18.6,0,0,1-10.3,10.3,19.24,19.24,0,0,1-7.2,1.4H287.8l-.8,2c-.8,2.1-1.7,4.3-2.7,6.4s-2,4.3-3.1,6.2l-.8,1.5,10.2,10.1a20.13,20.13,0,0,1,4,6.1,20,20,0,0,1,0,14.2,19.81,19.81,0,0,1-3.9,6.1L272.3,240a17.24,17.24,0,0,1-6,4.2,18.13,18.13,0,0,1-7.4,1.5,18.53,18.53,0,0,1-6.7-1.2l-.6-.2a19.39,19.39,0,0,1-6.1-4.3l-11.3-11.3-1.9.9c-2,.9-4.1,1.8-6.4,2.6-2,.8-4.1,1.5-6.3,2.2l-2.1.6v14a19.07,19.07,0,0,1-1.2,6.8l-.2.5a18.74,18.74,0,0,1-4.1,6.1l-.1.1a18.43,18.43,0,0,1-6.1,4,19.11,19.11,0,0,1-7.1,1.4H172.8a18.86,18.86,0,0,1-7.2-1.4,18.6,18.6,0,0,1-10.3-10.3,19.24,19.24,0,0,1-1.4-7.2V232.9l-2-.8c-2.1-.8-4.3-1.7-6.4-2.7s-4.3-2-6.2-3.1l-1.5-.8-10.1,10.2a20.07,20.07,0,0,1-5.8,3.8l-.4.2a19.18,19.18,0,0,1-7.2,1.3,18.66,18.66,0,0,1-7.1-1.3,19.81,19.81,0,0,1-6.1-3.9L82.7,217.2a18.74,18.74,0,0,1-4.1-6.1,18.51,18.51,0,0,1,0-14.6,17.7,17.7,0,0,1,3.9-5.6l11.7-11.6-.9-1.9a65.37,65.37,0,0,1-2.6-6.4c-.8-2-1.5-4.1-2.2-6.3l-.6-2.1h-14a19.07,19.07,0,0,1-6.8-1.2l-.5-.2a18,18,0,0,1-6.1-4.2h0a21.81,21.81,0,0,1-4.1-6.1,19.11,19.11,0,0,1-1.4-7.1V117.9a18.86,18.86,0,0,1,1.4-7.2,17.74,17.74,0,0,1,4.1-6.1h0a18.74,18.74,0,0,1,6.1-4.1,19.24,19.24,0,0,1,7.2-1.4H90l.8-2c.8-2.1,1.7-4.3,2.7-6.4s2-4.3,3.1-6.2l.8-1.5-9.8-9.9A20.8,20.8,0,0,1,83.4,67a18.73,18.73,0,0,1,4.1-20.7l18.2-18.2a18.74,18.74,0,0,1,6.1-4.1,18.51,18.51,0,0,1,14.6,0,18.89,18.89,0,0,1,5.6,3.9l11.8,11.6,1.7-.8c1.8-.8,3.8-1.7,6-2.5l.3-.1c2-.8,4.1-1.5,6.3-2.2l2.1-.6V18.9a19.76,19.76,0,0,1,1.4-7.3h0a18.35,18.35,0,0,1,4.1-6l.1-.1a18.43,18.43,0,0,1,6.1-4A19.11,19.11,0,0,1,179,.1h25.9a18.86,18.86,0,0,1,7.2,1.4,18.6,18.6,0,0,1,10.3,10.3,19.24,19.24,0,0,1,1.4,7.2V35l2,.8c2.1.8,4.3,1.7,6.4,2.7s4.3,2,6.2,3.1l1.5.8,9.9-9.8a20.8,20.8,0,0,1,6.1-4.2,21,21,0,0,1,7.6-1.5ZM211.3,81.2a56.58,56.58,0,0,1,30.4,30.4l.2.6a58,58,0,0,1,4.3,21.8,57.32,57.32,0,0,1-4.5,22.3v.1a57.62,57.62,0,0,1-12.2,18.2h0a57.62,57.62,0,0,1-18.2,12.2l-.5.2a58,58,0,0,1-21.8,4.3,57.32,57.32,0,0,1-22.3-4.5h0a56.58,56.58,0,0,1-30.4-30.4l-.2-.6a58,58,0,0,1-4.3-21.8,57.32,57.32,0,0,1,4.5-22.3h0a57.62,57.62,0,0,1,12.2-18.2h0a57.62,57.62,0,0,1,18.2-12.2l.6-.2a58.4,58.4,0,0,1,21.8-4.3,55.67,55.67,0,0,1,22.2,4.4Zm9,21.3A45.92,45.92,0,0,0,206.1,93a44,44,0,0,0-17.2-3.4A46.14,46.14,0,0,0,172,92.8l-.4.2a47.13,47.13,0,0,0-14.2,9.5,44.16,44.16,0,0,0-12.9,31.4,46.14,46.14,0,0,0,3.2,16.9l.2.4a43.78,43.78,0,0,0,9.5,14.1,45.92,45.92,0,0,0,14.2,9.5,44,44,0,0,0,17.2,3.4,46.14,46.14,0,0,0,16.9-3.2l.4-.2a47.13,47.13,0,0,0,14.2-9.5,45.92,45.92,0,0,0,9.5-14.2,44.12,44.12,0,0,0,3.4-17.3,46.14,46.14,0,0,0-3.2-16.9l-.2-.4a45.06,45.06,0,0,0-9.5-14Z" transform="translate(0 -0.1)"/></svg>