<svg id="Layer_1" data-name="Layer 1" xmlns="http://www.w3.org/2000/svg" viewBox="0 0 114.98 116.23"><defs><style>.cls-1{fill:#ff661b;}</style></defs><path class="cls-1" d="M54.69,3.67a50.68,50.68,0,0,1,42.37,78.5L119,106.09,103.87,119.9,82.78,96.64a50.72,50.72,0,1,1-28.09-93ZM72.19,34.6l-1.8-2.27a1.25,1.25,0,0,1-.28-1.14c.28-.94,1.42-.85,2.17-.75,2.18.18,7.19.18,8.32.28A1.17,1.17,0,0,1,81.74,32v.28c-.19,1.14-1.23,6.43-1.61,8.51-.09.76-.38,1.61-1.23,1.71a1.51,1.51,0,0,1-1-.48l-1.8-2.27-.75-.94-8.7,6.62v.19a5.29,5.29,0,0,1-5.3,5.29A5.44,5.44,0,0,1,56,45.38V45l-6.15-4.45a5.39,5.39,0,0,1-6.43-.28l-6,4.26A5.3,5.3,0,1,1,31,40.84a7,7,0,0,1,1.42-.19,5.68,5.68,0,0,1,2.18.47l7-5a5.3,5.3,0,0,1,10.59.19v.38l6.15,4.44a5.24,5.24,0,0,1,6.14.1l8-6.15-.28-.47Zm-.1,13.61h7.28a.82.82,0,0,1,.76.76V77.34a.82.82,0,0,1-.76.76H72.09a.81.81,0,0,1-.75-.76V49.07a1,1,0,0,1,.75-.86ZM57.62,58h7.29a.81.81,0,0,1,.75.75V77.44a.81.81,0,0,1-.75.75H57.62a.8.8,0,0,1-.75-.75V58.71a.8.8,0,0,1,.75-.75ZM43.15,48.21h7.29a.93.93,0,0,1,.85.67V77.34a.82.82,0,0,1-.76.76H43.15a.82.82,0,0,1-.75-.76V49.07a1,1,0,0,1,.75-.86ZM28.68,59.56H36a.82.82,0,0,1,.75.76h0v17a.82.82,0,0,1-.75.76H28.68a.82.82,0,0,1-.75-.76v-17a.82.82,0,0,1,.75-.76ZM86.56,22.49A45.1,45.1,0,1,0,99.8,54.36,45.18,45.18,0,0,0,86.56,22.49Z" transform="translate(-4.02 -3.67)"/></svg>