<svg id="Layer_1" data-name="Layer 1" xmlns="http://www.w3.org/2000/svg" viewBox="0 0 512.03 503.06"><defs><style>.cls-1{fill:#ff661b;}</style></defs><path class="cls-1" d="M248.2,301.3,76.3,211.1,32,263.8c62.1,32.8,119.8,63.9,181.9,96.7ZM382.6,57.7l.6,124.1a15.41,15.41,0,0,1-9.9,14.4h0L265.5,244.1c-4.1,1.6-11.7,1.9-15.7.2l-99.4-46.1h0a16.07,16.07,0,0,1-9.8-14.8l.6-122.5c-.4-7.6,2.7-14.9,10.1-17.9L255.1,1.2a16.63,16.63,0,0,1,12.6.1L371.3,38.8a15.53,15.53,0,0,1,10.4,13.8A15.24,15.24,0,0,1,382.6,57.7ZM247.2,220.4V103.9L156,68l-1.8,112.6Zm21.5-116.5V220.2l98.7-40.9L366.9,66l-98.2,37.9ZM113.5,185.1,88,197.7l171.3,90L431,197.6l-20.6-10.7-.1-19.6,25.9,13.4,48.4-45.9L410,94.4l-.1-20.8,98.6,52.2a6.1,6.1,0,0,1,1.6,1.2,6.52,6.52,0,0,1-.1,9.3l-59,57.9,57.1,68.4a6.64,6.64,0,0,1-.8,9.3,6.71,6.71,0,0,1-1.4.9l-51.3,27.1V401.6a6.68,6.68,0,0,1-4.1,6.1L265,501.8c-4.4,2.1-6,1.6-10.8-1.5l-185.6-93a6.6,6.6,0,0,1-3.6-5.9V300.2L12.8,272.6a3.81,3.81,0,0,1-1.3-.9,6.63,6.63,0,0,1-.8-9.3l55.7-66.6L1.6,134.7a6.62,6.62,0,0,1,.6-9.3l1.2-.9L114.1,62,114,83.2,25.4,133.6,78,182.5l35.6-17.6-.1,20.2Zm329.9,26.7-171.6,90,33.4,59.3,180.5-97.9-42.3-51.4Z" transform="translate(0.03 -0.01)"/></svg>