<svg id="Layer_1" data-name="Layer 1" xmlns="http://www.w3.org/2000/svg" viewBox="0 0 195.21 182.38"><defs><style>.cls-1{fill:#ff661b;}</style></defs><g id="Layer_2" data-name="Layer 2"><g id="Layer_1-2" data-name="Layer 1-2"><path class="cls-1" d="M55.2,93.5c6.7-4.8,12.8-9.3,18.9-13.7a74.37,74.37,0,0,1,7.3-5.2c2.7-1.6,3.4-3.8,3.7-6.7,1-11.7,2.2-23.4,3.4-35a12.5,12.5,0,0,1,12.7-11.5c2.2,0,4.3-.1,6.5,0a12.46,12.46,0,0,1,11.9,11.1l5.7,60c.2,1.6.4,3.2.6,4.9h14.6c.8-9,1.5-18,2.3-26.9,1.6-19.5,3.2-38.9,5-58.4.6-7.3,5.9-11.9,13.2-12q6.6-.15,13.2,0c7.5.1,12.5,4.9,13.2,12.3,2.6,29.2,5.1,58.4,7.7,87.5.1,1.1.1,2.2.1,3.4v64.8c0,9.1-5.1,14.3-14.4,14.3H14.4C5.1,182.4,0,177.3,0,167.9c0-20.1.1-40.2,0-60.3A14.14,14.14,0,0,1,6.3,95.2c11.2-8,22.4-16.2,33.4-24.4,3.3-2.4,6.7-4,10.6-2s4.9,5.8,4.8,10C55.1,83.4,55.2,88.1,55.2,93.5ZM46.7,76.4a8.26,8.26,0,0,0-1.3.7C34,85.4,22.5,93.7,11,102c-2,1.4-2.6,3.2-2.6,5.6v60.3c0,4.6,1.4,6,6.1,6h166c4.7,0,6-1.4,6-6.1V108.9c0-.9-.1-1.8-.2-2.9H99c-4.6,0-5.8-1.2-5.8-5.9V76.4c-1.1.7-1.8,1.1-2.5,1.6-6.4,4.7-12.8,9.3-19.1,13.9-6,4.4-11.9,8.8-18.1,13a5.33,5.33,0,0,1-4.6.4c-1.1-.5-1.8-2.4-2.2-3.8a17,17,0,0,1-.1-3.9Zm139.4,21c-.1-1.2-.1-2.2-.2-3.1l-4.4-52.4c-.8-9.2-1.5-18.5-2.4-27.8-.4-4-1.6-5.5-4.9-5.6q-6.6-.15-13.2,0c-2.9.1-4.5,1.6-4.7,4.5l-1.2,13.5-4.8,55.2c-.4,5.2-.9,10.4-1.3,15.7Zm-69.3,0V95.3c-1.8-19.5-3.5-39.1-5.4-58.6-.7-6.8-1.3-7.2-9.5-7-3.2.1-4.6,1.3-5,4.5-.8,7.1-1.5,14.2-2.2,21.3-.4,4-.8,8-1.2,11.9,6.4,1.8,8.2,4.2,8.2,10.6V97.4Z" transform="translate(0.01 -0.03)"/><path class="cls-1" d="M80.6,139.9V127.8c0-3.1,1.5-4.8,4.6-4.8,8.2-.1,16.3-.1,24.5,0,3.3,0,4.7,1.7,4.7,5v23.9c0,3.3-1.5,4.9-4.8,4.9-8.1.1-16.1.1-24.2,0-3.4,0-4.8-1.6-4.9-5.1C80.6,147.8,80.6,143.9,80.6,139.9Zm25.3,8.4V131.6H89.2v16.7Z" transform="translate(0.01 -0.03)"/><path class="cls-1" d="M59.3,139.9V152c0,3.3-1.5,4.8-4.8,4.8-8.1.1-16.1.1-24.2,0-3.2,0-4.8-1.6-4.8-4.9V128c0-3.4,1.6-5,5.1-5,8-.1,16-.1,23.9,0,3.5,0,4.8,1.6,4.9,5.1C59.4,132.1,59.3,136,59.3,139.9Zm-8.6-8.2H34.1v16.6H50.7Z" transform="translate(0.01 -0.03)"/><path class="cls-1" d="M135.7,140V127.9c.1-3.3,1.5-4.8,4.8-4.9,8.1-.1,16.1-.1,24.2,0,3.2,0,4.8,1.7,4.8,5v23.9c0,3.4-1.6,5-5.1,5-8,.1-16,.1-23.9,0-3.5,0-4.9-1.5-4.9-5.1C135.7,147.9,135.7,143.9,135.7,140Zm8.6-8.3v16.6H161V131.7Z" transform="translate(0.01 -0.03)"/></g></g></svg>