<svg id="Layer_1" data-name="Layer 1" xmlns="http://www.w3.org/2000/svg" viewBox="0 0 123.04 95.94"><defs><style>.cls-1{fill:#ff661b;}</style></defs><path class="cls-1" d="M112.1,55a2.28,2.28,0,0,0-1.6-.4,2.16,2.16,0,0,0-1.4.9l-1.9,2.6a17.23,17.23,0,0,0-2.1-.7,17,17,0,0,0-2.2-.4l-.6-3.5a2.16,2.16,0,0,0-.9-1.4,2.22,2.22,0,0,0-1.6-.3l-4.4.8a2.16,2.16,0,0,0-1.4.9,2.28,2.28,0,0,0-.4,1.6l.6,3.2a12.44,12.44,0,0,0-2,1l-1.8,1.2-2.9-2a2.28,2.28,0,0,0-1.6-.4,2.16,2.16,0,0,0-1.4.9L82,62.6a2.28,2.28,0,0,0-.4,1.6,2.16,2.16,0,0,0,.9,1.4l2.7,1.9a17.23,17.23,0,0,0-.7,2.1,17,17,0,0,0-.4,2.2l-3.5.6a2.16,2.16,0,0,0-1.4.9,1.83,1.83,0,0,0-.3,1.6l.8,4.4a2.16,2.16,0,0,0,.9,1.4,2.28,2.28,0,0,0,1.6.4l3.2-.6a12.44,12.44,0,0,0,1,2c.4.6.8,1.3,1.2,1.8l-2,2.9a2.28,2.28,0,0,0-.4,1.6,2.16,2.16,0,0,0,.9,1.4l3.6,2.6a2.22,2.22,0,0,0,1.6.3,2.48,2.48,0,0,0,1.4-.8l1.9-2.7a17.23,17.23,0,0,0,2.1.7,17,17,0,0,0,2.2.4l.6,3.5a2.16,2.16,0,0,0,.9,1.4,2.22,2.22,0,0,0,1.6.3l4.4-.8a2.16,2.16,0,0,0,1.4-.9,2.28,2.28,0,0,0,.4-1.6l-.6-3.2a12.44,12.44,0,0,0,2-1l1.8-1.2,2.9,2a2.28,2.28,0,0,0,1.6.4,2.16,2.16,0,0,0,1.4-.9l2.6-3.6a2.22,2.22,0,0,0,.3-1.6,2.48,2.48,0,0,0-.8-1.4l-2.7-1.9a17.23,17.23,0,0,0,.7-2.1,17,17,0,0,0,.4-2.2l3.5-.6a2.16,2.16,0,0,0,1.4-.9,2.22,2.22,0,0,0,.3-1.6l-.8-4.4a2.16,2.16,0,0,0-.9-1.4,2.28,2.28,0,0,0-1.6-.4l-3.2.6a18.65,18.65,0,0,0-1-2,14,14,0,0,0-1.2-1.8l2-2.9a2.28,2.28,0,0,0,.4-1.6,2.16,2.16,0,0,0-.9-1.4L112.1,55ZM99.5,65.2a7.76,7.76,0,0,1,3.4.1,10.11,10.11,0,0,1,3,1.3,8.37,8.37,0,0,1,3.5,5.6,7.76,7.76,0,0,1-.1,3.4,10.11,10.11,0,0,1-1.3,3,8.37,8.37,0,0,1-5.6,3.5A7.76,7.76,0,0,1,99,82a10.11,10.11,0,0,1-3-1.3,8.37,8.37,0,0,1-3.5-5.6,7.76,7.76,0,0,1,.1-3.4,10.11,10.11,0,0,1,1.3-3,8.81,8.81,0,0,1,2.4-2.3,11.15,11.15,0,0,1,3.2-1.2ZM66,13.6a1.76,1.76,0,0,0-.5-.4c-.1-.1-.3-.1-.6-.1a1.27,1.27,0,0,0-.6.1c-.2.1-.3.2-.5.3h0l-4.2,4.2a2.42,2.42,0,0,1-3,.3l-1.5-.9a13,13,0,0,0-1.7-.8,12.2,12.2,0,0,0-1.7-.7,18.88,18.88,0,0,0-1.8-.6,2.37,2.37,0,0,1-1.6-2.3h0V6.2a1.27,1.27,0,0,0-.1-.6c-.1-.2-.2-.3-.3-.5h0c-.2-.2-.3-.3-.5-.3a1.27,1.27,0,0,0-.6-.1h-8a.75.75,0,0,0-.5.1,1.76,1.76,0,0,0-.5.4h0c-.1.1-.2.3-.3.4a1.27,1.27,0,0,0-.1.6v5.9a2.28,2.28,0,0,1-2,2.3c-.6.2-1.2.3-1.7.5s-1.2.4-1.7.6-1.1.5-1.7.7-1.1.5-1.6.8a2.42,2.42,0,0,1-2.8-.4h0L21.3,12l-.1-.1h0a.54.54,0,0,0-.4-.3.75.75,0,0,0-.5-.1.75.75,0,0,0-.5.1,1,1,0,0,0-.5.4l-5.6,5.6h0a1.76,1.76,0,0,0-.4.5c-.1.1-.1.3-.1.6a1.27,1.27,0,0,0,.1.6c.1.2.2.3.3.5h0L17.8,24a2.42,2.42,0,0,1,.3,3l-.9,1.5a13,13,0,0,0-.8,1.7,12.2,12.2,0,0,0-.7,1.7,18.88,18.88,0,0,0-.6,1.8,2.37,2.37,0,0,1-2.3,1.6H6.2a1.27,1.27,0,0,0-.6.1c-.2.1-.3.2-.5.3h0a2.19,2.19,0,0,0-.3.5,1.27,1.27,0,0,0-.1.6v8a.75.75,0,0,0,.1.5,1.76,1.76,0,0,0,.4.5h0c.1.1.3.2.4.3a1.27,1.27,0,0,0,.6.1h5.9a2.28,2.28,0,0,1,2.3,2,8.45,8.45,0,0,0,.5,1.7h0l.6,1.8c.2.5.5,1.1.7,1.7s.6,1.2.8,1.7a2.42,2.42,0,0,1-.4,2.8h0L12,62.4h0a.54.54,0,0,0-.3.4,1.3,1.3,0,0,0,0,1,1,1,0,0,0,.4.5l5.6,5.6c.2.2.3.3.5.3a1.27,1.27,0,0,0,.6.1,1.27,1.27,0,0,0,.6-.1c.2-.1.3-.2.5-.3L24,66a2.42,2.42,0,0,1,3-.3l1.5.9a13,13,0,0,0,1.7.8,12.2,12.2,0,0,0,1.7.7,18.88,18.88,0,0,0,1.8.6A2.37,2.37,0,0,1,35.3,71h0v6.4a1.27,1.27,0,0,0,.1.6c.1.2.2.3.3.5h0a1.37,1.37,0,0,0,1.1.4h8a.75.75,0,0,0,.5-.1,1.76,1.76,0,0,0,.5-.4h0c.1-.1.2-.3.3-.4a1.27,1.27,0,0,0,.1-.6V71.5a2.28,2.28,0,0,1,2-2.3c.6-.2,1.2-.3,1.7-.5s1.2-.4,1.7-.6,1.1-.5,1.7-.7,1.2-.6,1.7-.8a2.42,2.42,0,0,1,2.8.4h0l4.5,4.6h0a.54.54,0,0,0,.4.3.75.75,0,0,0,.5.1,1.27,1.27,0,0,0,.6-.1,1.38,1.38,0,0,0,.4-.3l.1-.1L69.9,66c.2-.2.3-.3.3-.5a1.85,1.85,0,0,0,0-1.2c-.1-.2-.2-.3-.3-.5L66,59.7a2.42,2.42,0,0,1-.3-3l.9-1.5a13,13,0,0,0,.8-1.7,12.2,12.2,0,0,0,.7-1.7,18.88,18.88,0,0,0,.6-1.8A2.37,2.37,0,0,1,71,48.4h6.4a1.27,1.27,0,0,0,.6-.1c.2-.1.3-.2.5-.3h0a1.37,1.37,0,0,0,.4-1.1v-8a.75.75,0,0,0-.1-.5,1.76,1.76,0,0,0-.4-.5h0c-.1-.1-.3-.2-.4-.3a1.27,1.27,0,0,0-.6-.1H71.5a2.47,2.47,0,0,1-2.4-2,9.83,9.83,0,0,0-.5-1.6,18.88,18.88,0,0,1-.6-1.8V32a7.74,7.74,0,0,0-.7-1.6c-.3-.6-.5-1.1-.8-1.6a2.42,2.42,0,0,1,.4-2.8h0l4.6-4.6.1-.1h0a.54.54,0,0,0,.3-.4.75.75,0,0,0,.1-.5.75.75,0,0,0-.1-.5,1,1,0,0,0-.4-.5L66,13.6Zm1.4-4.8a5.58,5.58,0,0,1,2,1.4h0L75,15.8h0a9,9,0,0,1,1.4,2,6.87,6.87,0,0,1,.5,2.4,6,6,0,0,1-.5,2.4,6.61,6.61,0,0,1-1.4,2L71.7,28a.37.37,0,0,1,.1.3,15.39,15.39,0,0,1,.8,1.9v.1c.2.6.5,1.3.7,2.1l.1.2h4a6,6,0,0,1,2.4.5,6.61,6.61,0,0,1,2,1.4h0a6.25,6.25,0,0,1,1.3,2,6.35,6.35,0,0,1,.5,2.3v8a6,6,0,0,1-1.8,4.4h0a6.61,6.61,0,0,1-2,1.4,6,6,0,0,1-2.4.5H72.7c0,.1-.1.2-.1.4-.3.7-.5,1.3-.8,2a12.44,12.44,0,0,1-1,2c0,.1-.1.1-.1.2l2.9,2.8.1.1a6.25,6.25,0,0,1,1.3,2,6.81,6.81,0,0,1,0,4.6,6.25,6.25,0,0,1-1.3,2h0a.1.1,0,0,1-.1.1L67.9,75a5.58,5.58,0,0,1-2,1.4,6.87,6.87,0,0,1-2.4.5,6,6,0,0,1-2.4-.5,5.58,5.58,0,0,1-2-1.4l-3.3-3.3c-.1.1-.2.1-.4.2a11.92,11.92,0,0,1-2,.8,17.23,17.23,0,0,1-2.1.7c-.1,0-.2.1-.3.1v4a6,6,0,0,1-.5,2.4,6.61,6.61,0,0,1-1.4,2h0a6.25,6.25,0,0,1-2,1.3,6.35,6.35,0,0,1-2.3.5h-8a6,6,0,0,1-4.4-1.8h0a6.61,6.61,0,0,1-1.4-2,6,6,0,0,1-.5-2.4V72.8c-.1,0-.2-.1-.4-.1-.7-.3-1.3-.5-2-.8a12.44,12.44,0,0,1-2-1c-.1,0-.1-.1-.2-.1l-2.8,2.9-.1.1a6.25,6.25,0,0,1-2,1.3,5.87,5.87,0,0,1-2.3.4,5.87,5.87,0,0,1-2.3-.4,6.25,6.25,0,0,1-2-1.3h0a.1.1,0,0,1-.1-.1L8.7,68a9,9,0,0,1-1.4-2,6.87,6.87,0,0,1-.5-2.4,6,6,0,0,1,.5-2.4,6.61,6.61,0,0,1,1.4-2L12,55.9c-.1-.1-.1-.2-.2-.4a11.92,11.92,0,0,1-.8-2,17.23,17.23,0,0,1-.7-2.1h0l-.1-.3h-4a6,6,0,0,1-2.4-.5,6.61,6.61,0,0,1-2-1.4h0a6.25,6.25,0,0,1-1.3-2A5.93,5.93,0,0,1,0,44.9v-8a6.87,6.87,0,0,1,.5-2.4,5.58,5.58,0,0,1,1.4-2h0a6.61,6.61,0,0,1,2-1.4,6,6,0,0,1,2.4-.5H11c0-.1.1-.2.1-.4.3-.7.5-1.3.8-2a12.44,12.44,0,0,1,1-2A.35.35,0,0,1,13,26l-2.9-2.9a6.61,6.61,0,0,1-1.4-2,6.87,6.87,0,0,1-.5-2.4,6.87,6.87,0,0,1,.5-2.4,5.58,5.58,0,0,1,1.4-2h0l5.6-5.6h0a9,9,0,0,1,2-1.4,6.87,6.87,0,0,1,2.4-.5,6,6,0,0,1,2.4.5,6.61,6.61,0,0,1,2,1.4L27.9,12c.1,0,.2-.1.3-.1a11.92,11.92,0,0,1,2-.8,17.23,17.23,0,0,1,2.1-.7c.1,0,.2-.1.3-.1v-4a6,6,0,0,1,.5-2.4,6.61,6.61,0,0,1,1.4-2h0a6.25,6.25,0,0,1,2-1.3A4.93,4.93,0,0,1,38.8,0h8a6.87,6.87,0,0,1,2.4.5,5.58,5.58,0,0,1,2,1.4h0a6.61,6.61,0,0,1,1.4,2,6,6,0,0,1,.5,2.4V11c.1,0,.2.1.4.1.7.3,1.3.5,2,.8a12.44,12.44,0,0,1,2,1l.2.1,2.9-2.9a6.61,6.61,0,0,1,2-1.4A6.87,6.87,0,0,1,65,8.2a10.55,10.55,0,0,1,2.4.6Zm-25.5,15a14.72,14.72,0,0,1,3.6.4,13.52,13.52,0,0,1,3.4,1.1h0A18.69,18.69,0,0,1,52,27a14.42,14.42,0,0,1,2.7,2.2h0a19.86,19.86,0,0,1,2.2,2.7A18.69,18.69,0,0,1,58.6,35c0,.1.1.1.1.2a20.74,20.74,0,0,1,1,3.3,22,22,0,0,1,.4,3.6,14.72,14.72,0,0,1-.4,3.6,13.52,13.52,0,0,1-1.1,3.4h0a18.69,18.69,0,0,1-1.7,3.1,14.42,14.42,0,0,1-2.2,2.7h0A19.86,19.86,0,0,1,52,57.1a18.69,18.69,0,0,1-3.1,1.7c-.1,0-.1.1-.2.1a20.74,20.74,0,0,1-3.3,1,22,22,0,0,1-3.6.4,14.72,14.72,0,0,1-3.6-.4,13.52,13.52,0,0,1-3.4-1.1h0a18.69,18.69,0,0,1-3.1-1.7A14.42,14.42,0,0,1,29,54.9h0a19.86,19.86,0,0,1-2.2-2.7,18.69,18.69,0,0,1-1.7-3.1c0-.1-.1-.1-.1-.2a20.74,20.74,0,0,1-1-3.3,22,22,0,0,1-.4-3.6,14.72,14.72,0,0,1,.4-3.6A13.52,13.52,0,0,1,25.1,35h0a18.69,18.69,0,0,1,1.7-3.1A14.42,14.42,0,0,1,29,29.2h0A19.86,19.86,0,0,1,31.7,27a18.69,18.69,0,0,1,3.1-1.7c.1,0,.1-.1.2-.1a20.74,20.74,0,0,1,3.3-1,13.7,13.7,0,0,1,3.6-.4Zm2.6,5a12.3,12.3,0,0,0-5.4,0,21.72,21.72,0,0,0-2.4.7.1.1,0,0,0-.1.1c-.8.4-1.6.8-2.3,1.2a15.58,15.58,0,0,0-2,1.6,15.58,15.58,0,0,0-1.6,2,10.08,10.08,0,0,0-1.2,2.3h0a18.29,18.29,0,0,0-.8,2.5,12.3,12.3,0,0,0,0,5.4,21.72,21.72,0,0,0,.7,2.4.1.1,0,0,0,.1.1c.4.8.8,1.6,1.2,2.3a15.58,15.58,0,0,0,1.6,2,15.58,15.58,0,0,0,2,1.6,10.08,10.08,0,0,0,2.3,1.2h0a18.29,18.29,0,0,0,2.5.8,12.3,12.3,0,0,0,5.4,0,21.72,21.72,0,0,0,2.4-.7.1.1,0,0,0,.1-.1c.8-.4,1.6-.8,2.3-1.2a15.58,15.58,0,0,0,2-1.6,15.58,15.58,0,0,0,1.6-2,10.08,10.08,0,0,0,1.2-2.3h0a18.29,18.29,0,0,0,.8-2.5,12.3,12.3,0,0,0,0-5.4,21.72,21.72,0,0,0-.7-2.4.1.1,0,0,0-.1-.1c-.4-.8-.8-1.6-1.2-2.3a15.58,15.58,0,0,0-1.6-2,15.58,15.58,0,0,0-2-1.6A10.08,10.08,0,0,0,47,29.6h0a9.17,9.17,0,0,0-2.5-.8Z"/></svg>