<svg id="Layer_1" data-name="Layer 1" xmlns="http://www.w3.org/2000/svg" viewBox="0 0 512.1 448.8"><defs><style>.cls-1{fill:#ff661b;fill-rule:evenodd;}</style></defs><path class="cls-1" d="M220,310.7l-.3-.2-33.3-27.2a24.52,24.52,0,0,0-10.3-5.2,8.57,8.57,0,0,0-5.1.2,4.51,4.51,0,0,0-2.3,2.4c-.9,2.1-1.4,5.1-1.1,9.3.2,3.7,1.6,7.9,3.4,12a81.3,81.3,0,0,0,9,15.3l56.4,85.2a10.17,10.17,0,0,1,1.5,4.1c1.1,8.9,2.9,15.4,5.6,19.4q2.55,3.75,6.3,3.6c28.7,0,59.5-1.1,87.9,0a24.4,24.4,0,0,0,13.5-4.4c4.7-3.2,9-8.4,13-15.3l1.1-1.8c10.7-18.4,21.1-36.3,22.2-57.3-.2-10.6-.6-21.2-.6-31.8.2-15.6.4-34.9-12.6-37.4h-7.4c-.1,4-.4,8-.6,11.9s-.5,7.9-.5,11.7a9.6,9.6,0,0,1-19.2,0c0-3.8.3-8.2.6-12.9.9-14.5,2-31.2-8.3-33.3H330c0,4.9-.4,10-.7,14.9-.2,4-.5,7.9-.5,11.7a9.6,9.6,0,1,1-19.2,0c0-3.8.3-8.2.6-12.9.9-14.5,2-31.2-8.3-33.3h-9.2v26a9.6,9.6,0,0,1-19.2,0V189c0-11.8-4.7-19.2-10.7-22.2a14.38,14.38,0,0,0-6.7-1.6,15.71,15.71,0,0,0-6.7,1.6c-5.9,3-10.5,10.4-10.5,22.6V323.1a9.6,9.6,0,1,1-19.2,0V310.7Zm35-242a47.69,47.69,0,0,1,25.8,87.8c7.1,7.2,11.9,18.1,11.9,32.5v22h28.8a10.36,10.36,0,0,0,7-2.7l.4-.4a10.37,10.37,0,0,0,3.1-7.3V32.3a10.59,10.59,0,0,0-10.4-10.4h-133a10.36,10.36,0,0,0-7,2.7l-.4.4a10.37,10.37,0,0,0-3.1,7.3V200.5a9.93,9.93,0,0,0,2.7,6.9l.4.4a10.37,10.37,0,0,0,7.3,3.1H220V189.3c0-14,4.3-24.6,10.8-31.8A47.7,47.7,0,0,1,255,68.7ZM365.4,262.5h9.4a14.92,14.92,0,0,1,2.1.2c29.5,4.6,29.2,33.3,28.9,56.4-.1,10.8.5,21.6.6,32.4-1.3,25.7-12.8,45.6-24.7,66.1l-1,1.8c-5.4,9.4-11.6,16.5-18.7,21.5a43.8,43.8,0,0,1-24.2,7.8H250c-9.6.1-17-4-22.4-12.1-4.1-6.2-6.9-14.8-8.4-25.5l-54.8-82.9a99.36,99.36,0,0,1-10.9-18.6,54.57,54.57,0,0,1-4.9-18.5c-.5-7.5.6-13.5,2.7-18.3a23.43,23.43,0,0,1,12.5-12.3,27.87,27.87,0,0,1,16-1.2,43.17,43.17,0,0,1,18.8,9.3L220,286.1v-56H188.6a29.08,29.08,0,0,1-20.8-8.7l-.6-.6a29.38,29.38,0,0,1-8.1-20.2V32.3a29.08,29.08,0,0,1,8.7-20.8l.6-.6a29.38,29.38,0,0,1,20.2-8.1H321.5a29.08,29.08,0,0,1,20.8,8.7A29.08,29.08,0,0,1,351,32.3V200.5a29.08,29.08,0,0,1-8.7,20.8l-.6.6a29.88,29.88,0,0,1-18.8,8.1,28.9,28.9,0,0,1,5,9.9,7.57,7.57,0,0,1,1.5-.1h10.1a14.92,14.92,0,0,1,2.1.2c15,2.5,21.3,11.3,23.8,22.5Zm-312.9-49a12.71,12.71,0,0,1-21.6,13.4,208.39,208.39,0,0,1,1.6-221A12.7,12.7,0,1,1,53.9,19.6a184.87,184.87,0,0,0-21.3,47A182.78,182.78,0,0,0,52.5,213.5Zm362.2-14.4A12.73,12.73,0,1,1,394.2,184a114,114,0,0,0,16.2-31.4,111.93,111.93,0,0,0-15-99.6,12.71,12.71,0,0,1,20.8-14.6,136.89,136.89,0,0,1,18.7,37.7,140.22,140.22,0,0,1,6.4,41.6,137.62,137.62,0,0,1-26.6,81.4Zm66.4,27.8a12.71,12.71,0,1,1-21.6-13.4,182.61,182.61,0,0,0,27.1-95.9,181.34,181.34,0,0,0-28.5-98.1A12.75,12.75,0,0,1,479.6,5.8a208.2,208.2,0,0,1,32.5,111.7,209.45,209.45,0,0,1-7.9,56.8,213,213,0,0,1-23.1,52.6ZM117.8,184a12.73,12.73,0,0,1-20.5,15.1,137.62,137.62,0,0,1-26.6-81.4A137.27,137.27,0,0,1,95.8,38.4,12.71,12.71,0,0,1,116.6,53a114.54,114.54,0,0,0-15.3,30.7,113.61,113.61,0,0,0,.3,68.9A114,114,0,0,0,117.8,184ZM255,89.4a27,27,0,1,1-27,27,27,27,0,0,1,27-27Z" transform="translate(0 0.1)"/></svg>